<?xml version="1.0" encoding="UTF-8"?>
<svg version="1.1" xmlns="http://www.w3.org/2000/svg" width="4000" height="4000">
<path d="M0 0 C1.32 0 2.64 0 4 0 C5.2734375 1.42675781 5.2734375 1.42675781 6.375 3.453125 C6.79652344 4.2073877 7.21804688 4.96165039 7.65234375 5.73876953 C8.09707031 6.56747559 8.54179688 7.39618164 9 8.25 C9.97758223 10.00348844 10.9568027 11.75606436 11.9375 13.5078125 C12.69353516 14.87147949 12.69353516 14.87147949 13.46484375 16.26269531 C15.89640017 20.5983522 18.43961669 24.86449885 21 29.125 C21.74467529 30.36769653 21.74467529 30.36769653 22.50439453 31.63549805 C26.29026823 37.91434315 30.25412864 44.06390898 34.27294922 50.1953125 C37.2569367 54.77432143 39.96324806 59.42841019 42.51953125 64.26171875 C45.785887 70.30318413 49.43570975 76.13102384 53 82 C54.2539251 84.0676969 55.50782969 86.13540624 56.76171875 88.203125 C62.25062702 97.2511081 67.74297384 106.29700888 73.24931335 115.33439636 C75.02140759 118.24313651 76.79229816 121.15260784 78.5625 124.0625 C79.08627731 124.92341751 79.08627731 124.92341751 79.62063599 125.80172729 C85.64396232 135.70847971 91.5588316 145.67691045 97.45092773 155.66210938 C101.84699518 163.09693566 106.34510106 170.45542368 110.95703125 177.7578125 C124 198.45697897 124 198.45697897 124 202 C124.66 202.33 125.32 202.66 126 203 C126.625 205.0625 126.625 205.0625 127 207 C127.66 207 128.32 207 129 207 C129.32685791 207.57854736 129.65371582 208.15709473 129.99047852 208.75317383 C137.8660691 222.80263459 137.8660691 222.80263459 146.40234375 236.453125 C147.79552215 238.67403531 149.06327165 240.91182003 150.3203125 243.2109375 C152.99372798 248.06604828 155.9392699 252.71580095 158.9375 257.375 C162.76780417 263.37672337 166.44264245 269.38720757 169.75390625 275.6953125 C171.38664252 278.71510686 173.22474451 281.57893745 175.1171875 284.44140625 C176 286 176 286 176 288 C176.66 288 177.32 288 178 288 C178.52787109 288.99966797 178.52787109 288.99966797 179.06640625 290.01953125 C181.71531332 294.96461886 184.44888092 299.79081175 187.5 304.5 C190.34480642 308.89538223 192.90932245 313.37181317 195.34765625 318.00390625 C197.77724414 322.4093292 200.39309729 326.69770162 203 331 C203.89271606 332.47400269 203.89271606 332.47400269 204.8034668 333.9777832 C206.44912375 336.69184025 208.09633736 339.40494347 209.74462891 342.11740112 C210.84845662 343.93418066 211.95163561 345.75135285 213.0546875 347.56860352 C216.44355557 353.15084857 219.83447064 358.73179841 223.23718262 364.30561829 C224.99302565 367.18195574 226.74701566 370.05941954 228.5 372.9375 C228.84597229 373.50544281 229.19194458 374.07338562 229.54840088 374.65853882 C235.92554949 385.13787846 242.14558571 395.706395 248.29296875 406.32202148 C251.56764605 411.95397076 254.91790491 417.46653684 258.58178711 422.8527832 C261.13067386 426.71187409 263.39754379 430.73376911 265.6875 434.75 C266.62858888 436.39080707 267.56998604 438.03143737 268.51171875 439.671875 C268.94274902 440.42662109 269.3737793 441.18136719 269.81787109 441.95898438 C270.79239292 443.64155407 271.80700204 445.30083911 272.83203125 446.953125 C274 449 274 449 274 451 C274.66 451.33 275.32 451.66 276 452 C276.625 454.0625 276.625 454.0625 277 456 C277.66 456 278.32 456 279 456 C280.296875 457.80078125 280.296875 457.80078125 281.75 460.3125 C282.29011719 461.240625 282.83023438 462.16875 283.38671875 463.125 C284.81506706 465.67043428 286.194837 468.23418668 287.5625 470.8125 C292.09188251 479.20727177 297.28155177 487.22139375 302.32617188 495.31201172 C314.66939786 515.13390759 314.66939786 515.13390759 319.71875 524.66015625 C321.37465236 527.68419746 323.21644183 530.566379 325.1171875 533.44140625 C326 535 326 535 326 537 C326.66 537 327.32 537 328 537 C328.34828857 537.64541748 328.69657715 538.29083496 329.05541992 538.95581055 C333.03846205 546.30152602 337.14000283 553.57288414 341.3125 560.8125 C341.64347687 561.38702911 341.97445374 561.96155823 342.31546021 562.55349731 C346.52690462 569.85396751 350.84852245 577.01211689 355.48828125 584.046875 C359.94137045 590.93289931 364.00592171 598.07342786 368.15405273 605.14624023 C371.17977354 610.29239215 374.22893741 615.40612148 377.4609375 620.42578125 C382.07362455 627.60578421 386.31154237 635.00457437 390.59326172 642.38427734 C394.71212265 649.476539 398.89571522 656.50584037 403.33447266 663.40478516 C406.09810614 667.71106249 408.77660325 672.06721914 411.4375 676.4375 C411.97826172 677.30826172 412.51902344 678.17902344 413.07617188 679.07617188 C413.58599609 679.91599609 414.09582031 680.75582031 414.62109375 681.62109375 C415.0792749 682.3680249 415.53745605 683.11495605 416.00952148 683.88452148 C417 686 417 686 417 690 C415.95585937 690.57105469 414.91171875 691.14210938 413.8359375 691.73046875 C399.15455617 699.80125231 384.65794132 708.20235456 370.4375 717.0625 C364.07829824 721.01417107 357.5668662 724.68371853 351.0546875 728.3762207 C345.44904049 731.56672168 339.9178194 734.84936865 334.4375 738.25 C325.43583777 743.83198424 316.23257372 749.05388206 307.00756836 754.25488281 C300.74015962 757.80322774 294.58696887 761.46113433 288.53491211 765.36572266 C284.72495051 767.82203422 280.86563912 770.19514367 277 772.5625 C276.28328125 773.00529297 275.5665625 773.44808594 274.828125 773.90429688 C269.88256198 776.93389266 264.84281218 779.73977591 259.74121094 782.49731445 C255.47578035 784.83555147 251.30204193 787.32078427 247.125 789.8125 C240.62177975 793.67540941 234.11213452 797.52647672 227.58203125 801.34375 C226.94835632 801.71433029 226.3146814 802.08491058 225.6618042 802.46672058 C223.14812696 803.93650456 220.63436493 805.40613384 218.11895752 806.87295532 C211.87518306 810.51428315 205.66116996 814.19134084 199.51953125 818.00390625 C192.10384753 822.59242727 184.52533594 826.87366538 176.92773438 831.15087891 C170.52783505 834.75812613 164.23309328 838.42432112 158.16357422 842.5703125 C154.12910404 845.23628602 149.90000281 847.56719508 145.6875 849.9375 C143.82663486 850.99315815 141.96595643 852.04914551 140.10546875 853.10546875 C139.22165527 853.6061084 138.3378418 854.10674805 137.42724609 854.62255859 C130.55454134 858.52275978 123.75016088 862.52077811 117.03515625 866.6875 C110.6702787 870.61942918 104.23223394 874.41736004 97.76815796 878.18334961 C88.53756829 883.56164108 79.33084019 888.97427378 70.1875 894.5 C64.5327705 897.91684953 58.84383667 901.23971635 53.0625 904.4375 C46.8158992 907.89532648 40.74372974 911.59461153 34.6875 915.375 C32.01686563 917.03299746 29.34507259 918.68909952 26.67236328 920.34375 C24.88751204 921.44994686 23.10463605 922.55933702 21.32373047 923.671875 C18.76901657 925.25941684 16.19967893 926.82010382 13.625 928.375 C12.85889404 928.85759277 12.09278809 929.34018555 11.3034668 929.83740234 C7.94474594 931.83721729 5.65777551 932.96089325 1.71484375 933.1953125 C-3.96309995 931.36834008 -8.91374777 928.47889347 -14.0625 925.5 C-15.17995605 924.86360596 -16.29741211 924.22721191 -17.44873047 923.5715332 C-24.37049248 919.60165473 -31.15072443 915.48094817 -37.80859375 911.0859375 C-41.38864748 908.74597582 -45.021589 906.51455051 -48.6875 904.3125 C-49.25742676 903.96791748 -49.82735352 903.62333496 -50.41455078 903.26831055 C-53.95227703 901.15239517 -57.5409765 899.15437244 -61.16796875 897.1953125 C-67.41415623 893.80620215 -73.5209134 890.19987281 -79.625 886.5625 C-80.80315337 885.86235085 -81.98137746 885.16232068 -83.15966797 884.46240234 C-92.21144084 879.08158287 -101.23929615 873.66099728 -110.26586914 868.23803711 C-125.92583237 858.82341837 -125.92583237 858.82341837 -141.79638672 849.77124023 C-149.7246577 845.3731404 -157.43720477 840.68167564 -165.12939453 835.88330078 C-175.18168358 829.61968291 -185.31488534 823.48349822 -195.75 817.875 C-200.59934655 815.26658477 -205.24973635 812.39599764 -209.921875 809.484375 C-216.40021967 805.49718063 -223.01215615 801.72895821 -229.59838867 797.92382812 C-237.39443198 793.4052588 -237.39443198 793.4052588 -241.05859375 790.953125 C-245.43623276 788.04632619 -250.03657412 785.55680128 -254.625 783 C-267.82923395 775.58984703 -280.81009218 767.83761029 -293.6875 759.875 C-303.16737976 754.01870362 -312.72431716 748.23716801 -322.5625 743 C-326.92016011 740.66158449 -331.08024526 738.08960959 -335.25 735.4375 C-342.89522566 730.57823053 -350.74502639 726.12145454 -358.66699219 721.73022461 C-364.3410079 718.56900147 -369.8412371 715.22466233 -375.30102539 711.70727539 C-379.55699387 709.01510103 -383.92772178 706.53734415 -388.3125 704.0625 C-390.13542192 703.027353 -391.95833857 701.99219671 -393.78125 700.95703125 C-394.66296875 700.45768066 -395.5446875 699.95833008 -396.453125 699.44384766 C-400.07833282 697.38868287 -403.69565415 695.31983286 -407.3125 693.25 C-408.42238281 692.61578125 -409.53226563 691.9815625 -410.67578125 691.328125 C-411.44277344 690.88984375 -412.20976563 690.4515625 -413 690 C-412.64384064 683.75194717 -409.48618029 679.47557145 -406.1875 674.375 C-405.00527327 672.50729294 -403.824316 670.63878181 -402.64453125 668.76953125 C-402.0407666 667.81771973 -401.43700195 666.8659082 -400.81494141 665.88525391 C-397.93985736 661.31466697 -395.15218801 656.69302092 -392.375 652.0625 C-391.87895264 651.24120605 -391.38290527 650.41991211 -390.87182617 649.57373047 C-388.39974386 645.45430623 -386.07332438 641.3345003 -384 637 C-383.34 637 -382.68 637 -382 637 C-381.505 634.525 -381.505 634.525 -381 632 C-380.34 632 -379.68 632 -379 632 C-378.505 629.525 -378.505 629.525 -378 627 C-377.34 627 -376.68 627 -376 627 C-375.9175 626.30648437 -375.835 625.61296875 -375.75 624.8984375 C-374.82334204 621.31729057 -373.05159636 618.64306146 -371 615.625 C-370.17907889 614.38277098 -369.36013125 613.13923598 -368.54296875 611.89453125 C-368.12192871 611.25467285 -367.70088867 610.61481445 -367.26708984 609.95556641 C-365.21175991 606.7834676 -363.2547002 603.55476487 -361.3125 600.3125 C-360.93923584 599.68980225 -360.56597168 599.06710449 -360.18139648 598.42553711 C-357.37977499 593.71442365 -354.73822834 588.92841811 -352.19140625 584.07421875 C-351 582 -351 582 -349 580 C-348.67 579.01 -348.34 578.02 -348 577 C-347.01149312 575.98863747 -346.01067077 574.98921413 -345 574 C-343.91603675 572.33779169 -343.91603675 572.33779169 -342.9765625 570.5078125 C-342.60208984 569.81349121 -342.22761719 569.11916992 -341.84179688 568.40380859 C-341.44025391 567.65180176 -341.03871094 566.89979492 -340.625 566.125 C-333.98494195 553.93247962 -326.56809851 542.2355612 -319.16015625 530.5 C-315.09151446 524.04461165 -311.14964209 517.60250739 -307.57275391 510.85644531 C-305.92848908 507.87012143 -304.1761987 504.97875706 -302.37890625 502.08203125 C-301.66645527 500.93038791 -300.95422397 499.77860865 -300.2421875 498.62670898 C-299.87407959 498.03187714 -299.50597168 497.43704529 -299.12670898 496.82418823 C-296.12762263 491.96854395 -293.15727952 487.09524156 -290.18823242 482.22119141 C-289.42638899 480.97177479 -288.66333293 479.72309693 -287.89916992 478.47509766 C-286.77497134 476.63877244 -285.65465688 474.80012952 -284.53515625 472.9609375 C-283.879104 471.88634277 -283.22305176 470.81174805 -282.54711914 469.70458984 C-280.90252137 467.03517083 -280.90252137 467.03517083 -280 464 C-279.34 464 -278.68 464 -278 464 C-277.67 462.35 -277.34 460.7 -277 459 C-276.34 459 -275.68 459 -275 459 C-274.9175 458.2575 -274.835 457.515 -274.75 456.75 C-274 454 -274 454 -272.16796875 452.23046875 C-269.56905824 449.55663469 -268.23180088 446.89738394 -266.5625 443.5625 C-263.25875935 437.1496849 -259.63105501 430.99411515 -255.8125 424.875 C-255.26561523 423.99851807 -254.71873047 423.12203613 -254.15527344 422.21899414 C-252.43993458 419.47738205 -250.72030269 416.73849966 -249 414 C-246.59849027 410.17018336 -244.20394121 406.3361094 -241.8125 402.5 C-241.25989502 401.6219873 -240.70729004 400.74397461 -240.13793945 399.83935547 C-239.62448975 399.01580566 -239.11104004 398.19225586 -238.58203125 397.34375 C-238.13061768 396.62380859 -237.6792041 395.90386719 -237.21411133 395.16210938 C-235.91019226 392.84006889 -234.93707777 390.49014435 -234 388 C-233.34 388 -232.68 388 -232 388 C-231.67 386.35 -231.34 384.7 -231 383 C-230.34 383 -229.68 383 -229 383 C-228.67 381.35 -228.34 379.7 -228 378 C-227.34 378 -226.68 378 -226 378 C-225.8860791 377.43031494 -225.7721582 376.86062988 -225.65478516 376.27368164 C-224.9282422 373.75082759 -223.88399483 371.86473071 -222.5234375 369.62109375 C-222.02078369 368.78755371 -221.51812988 367.95401367 -221.00024414 367.09521484 C-220.46391357 366.21816895 -219.92758301 365.34112305 -219.375 364.4375 C-218.83029053 363.53725098 -218.28558105 362.63700195 -217.72436523 361.70947266 C-214.89940046 357.0556508 -212.02590686 352.44166911 -209.0625 347.875 C-206.37587084 343.72710668 -204.13998221 339.46924533 -202.04296875 334.99609375 C-201 333 -201 333 -199 331 C-198.67 330.01 -198.34 329.02 -198 328 C-197.01075313 326.98936128 -196.00994717 325.98995289 -195 325 C-193.89946853 323.3049202 -193.89946853 323.3049202 -192.94140625 321.4375 C-192.56193848 320.73318848 -192.1824707 320.02887695 -191.79150391 319.30322266 C-191.38593262 318.54315918 -190.98036133 317.7830957 -190.5625 317 C-186.9665774 310.39167435 -183.1815123 303.96081649 -179.125 297.625 C-169.58314275 282.70469743 -160.57122794 267.49747274 -152 252 C-151.34 252 -150.68 252 -150 252 C-149.67 250.35 -149.34 248.7 -149 247 C-148.34 247 -147.68 247 -147 247 C-146.5992627 245.67681763 -146.5992627 245.67681763 -146.19042969 244.3269043 C-145.05387603 241.15056782 -143.73335591 238.62307394 -141.953125 235.76953125 C-141.355 234.80080078 -140.756875 233.83207031 -140.140625 232.83398438 C-139.51671875 231.83689453 -138.8928125 230.83980469 -138.25 229.8125 C-134.03401453 223.03744707 -129.96589204 216.25253474 -126.25292969 209.1862793 C-124.81066297 206.66961942 -123.60419811 205.30209906 -121 204 C-120.31477846 202.34087563 -119.65370048 200.67179481 -119 199 C-117.57248477 196.18901944 -116.03742727 193.43959761 -114.5 190.6875 C-114.05567627 189.89061768 -113.61135254 189.09373535 -113.15356445 188.27270508 C-109.1257359 181.11298937 -104.81331152 174.15904737 -100.40966797 167.2265625 C-90.49634409 151.64122618 -90.49634409 151.64122618 -81.40234375 135.57421875 C-79.60133152 132.26818236 -77.69550867 129.03516971 -75.75 125.8125 C-75.08484375 124.70519531 -74.4196875 123.59789062 -73.734375 122.45703125 C-73.16203125 121.64621094 -72.5896875 120.83539062 -72 120 C-71.34 120 -70.68 120 -70 120 C-69.89945313 119.28666504 -69.79890625 118.57333008 -69.6953125 117.83837891 C-68.9038977 114.60769476 -67.63819355 112.40220433 -65.875 109.5859375 C-64.93914062 108.07386719 -64.93914062 108.07386719 -63.984375 106.53125 C-63.32953125 105.4896875 -62.6746875 104.448125 -62 103.375 C-60.70572592 101.30110412 -59.41393906 99.22565333 -58.125 97.1484375 C-57.55007813 96.23239746 -56.97515625 95.31635742 -56.3828125 94.37255859 C-54.87933916 91.97885056 -54.87933916 91.97885056 -54 89 C-53.34 89 -52.68 89 -52 89 C-51.67 87.35 -51.34 85.7 -51 84 C-50.34 84 -49.68 84 -49 84 C-48.896875 83.236875 -48.79375 82.47375 -48.6875 81.6875 C-47.91537135 78.6691789 -47.14564851 78.12556848 -45 76 C-44.09934028 74.58639085 -43.24747264 73.141073 -42.43359375 71.67578125 C-41.95349854 70.82048828 -41.47340332 69.96519531 -40.97875977 69.08398438 C-40.47014404 68.16939453 -39.96152832 67.25480469 -39.4375 66.3125 C-35.76429832 59.79665605 -32.05741545 53.32452633 -28.0625 47 C-27.6718335 46.38125 -27.28116699 45.7625 -26.87866211 45.125 C-26.05151157 43.81773423 -25.22360477 42.51094673 -24.39501953 41.20458984 C-21.57773988 36.75236106 -18.78687931 32.28379913 -16 27.8125 C-15.15320679 26.46575195 -15.15320679 26.46575195 -14.28930664 25.09179688 C-13.76071045 24.24294922 -13.23211426 23.39410156 -12.6875 22.51953125 C-11.98173828 21.39188354 -11.98173828 21.39188354 -11.26171875 20.24145508 C-9.93857449 17.89087702 -8.94667307 15.52307262 -8 13 C-7.34 13 -6.68 13 -6 13 C-5.67 11.35 -5.34 9.7 -5 8 C-4.34 8 -3.68 8 -3 8 C-2.67 6.35 -2.34 4.7 -2 3 C-1.34 3 -0.68 3 0 3 C0 2.01 0 1.02 0 0 Z " fill="#FFFFFF" transform="translate(1998,910)"/>
<path d="M0 0 C4.58186225 1.63068212 8.543366 4.00176658 12.6875 6.5 C18.8559529 10.17991275 25.07748058 13.73337779 31.375 17.1875 C37.08259975 20.32770489 42.63774556 23.59372707 48.09765625 27.15234375 C51.84955084 29.54083115 55.66745691 31.80632966 59.5 34.0625 C60.17619385 34.46210937 60.8523877 34.86171875 61.54907227 35.2734375 C65.41883671 37.54308323 69.32487124 39.72122438 73.27734375 41.84375 C79.3550268 45.14199842 85.20105292 48.77245899 91.0625 52.4375 C101.35025183 58.82752844 111.74754843 64.97821589 122.28344727 70.95092773 C127.61082494 73.98368317 132.7623298 77.13740803 137.83032227 80.58398438 C141.56820832 83.02347342 145.50272443 85.0866004 149.4375 87.1875 C158.44133542 92.06629313 167.1798732 97.29240347 175.88037109 102.68896484 C188.17082516 110.32984043 188.17082516 110.32984043 201 117 C201 117.66 201 118.32 201 119 C201.73758545 119.11448486 202.4751709 119.22896973 203.23510742 119.34692383 C206.05557001 120.01312581 207.81483886 120.89218696 210.23828125 122.44921875 C211.04612061 122.96049316 211.85395996 123.47176758 212.6862793 123.99853516 C213.55293213 124.55589355 214.41958496 125.11325195 215.3125 125.6875 C223.18376387 130.65962706 231.12717398 135.46552742 239.1875 140.125 C247.14699873 144.73128582 255.05175708 149.4056491 262.85424805 154.27392578 C266.61857243 156.6075188 270.42902704 158.7965072 274.328125 160.8984375 C279.98380288 163.95524434 285.46394401 167.25537631 290.9375 170.625 C292.95027156 171.85587647 294.9632974 173.08633721 296.9765625 174.31640625 C298.48138184 175.23703857 298.48138184 175.23703857 300.01660156 176.17626953 C304.60834286 178.98316867 309.20633254 181.77934119 313.8125 184.5625 C314.98317017 185.27623779 314.98317017 185.27623779 316.17749023 186.00439453 C320.0110807 188.31596295 323.85637754 190.45187136 327.88671875 192.40234375 C332.51048444 194.67116189 336.77868302 197.32278362 341.09472656 200.12646484 C346.28309078 203.47230577 351.5841156 206.63227343 356.875 209.8125 C357.97585938 210.47958984 359.07671875 211.14667969 360.2109375 211.83398438 C361.80421875 212.79208008 361.80421875 212.79208008 363.4296875 213.76953125 C364.38085449 214.34292236 365.33202148 214.91631348 366.31201172 215.50708008 C368.82644715 216.90360802 371.30645621 218.00099902 374 219 C374 219.66 374 220.32 374 221 C374.86625 221.268125 375.7325 221.53625 376.625 221.8125 C384.66733281 224.64220969 384.66733281 224.64220969 387.42456055 227.45141602 C389.17121234 229.1682938 390.86673255 230.17835795 393.01953125 231.33984375 C393.79490234 231.76330078 394.57027344 232.18675781 395.36914062 232.62304688 C396.17544922 233.05681641 396.98175781 233.49058594 397.8125 233.9375 C399.40370337 234.79827262 400.99357578 235.6615107 402.58203125 236.52734375 C403.34209473 236.93968262 404.1021582 237.35202148 404.88525391 237.77685547 C406.787069 238.87684319 408.50235754 240.06881552 410.26171875 241.37890625 C412.80477789 243.18949371 412.80477789 243.18949371 415.3359375 243.0390625 C419.30060925 241.49272425 422.93166409 239.47927038 426.625 237.375 C427.74068359 236.75431641 427.74068359 236.75431641 428.87890625 236.12109375 C434.09141788 233.18961285 439.12527441 230.02412931 444.15673828 226.79394531 C448.9052818 223.7978696 453.76459312 220.99711235 458.625 218.1875 C460.73451163 216.96247483 462.84388584 215.73721299 464.953125 214.51171875 C465.97857422 213.91665527 467.00402344 213.3215918 468.06054688 212.70849609 C472.17283154 210.31831602 476.27565806 207.91229417 480.375 205.5 C481.00873535 205.12770264 481.6424707 204.75540527 482.29541016 204.37182617 C485.76555625 202.32951489 489.22070069 200.26430218 492.66796875 198.18359375 C499.8062186 193.89439413 507.04777428 189.78357658 514.27929688 185.65429688 C520.39312683 182.14470599 526.39537677 178.51923297 532.32250977 174.70336914 C536.81912773 171.84270501 541.40789414 169.14123278 546 166.4375 C547.36125 165.63022461 547.36125 165.63022461 548.75 164.80664062 C554.30498661 161.52809384 559.92055417 158.39076234 565.59277344 155.32006836 C568.32848093 153.81986852 570.98517439 152.22535088 573.625 150.5625 C580.2954161 146.41559071 587.01723669 142.35734682 593.75 138.3125 C595.34835693 137.34969116 595.34835693 137.34969116 596.97900391 136.36743164 C602.26168666 133.19625638 607.56577174 130.09162181 612.96582031 127.12475586 C616.17774577 125.34879083 619.33962745 123.4907525 622.5 121.625 C623.20286133 121.21072754 623.90572266 120.79645508 624.62988281 120.36962891 C637.94356086 112.50451829 651.24251408 104.60220783 664.375 96.4375 C668.82994117 93.67827251 673.36149341 91.13959881 677.9765625 88.66015625 C690.1888175 81.95446068 702.04250682 74.5759798 713.9777832 67.39550781 C720.45179105 63.50764767 726.95998625 59.70616231 733.53515625 55.9921875 C738.65432132 53.04881187 743.6967158 49.98038966 748.75048828 46.92651367 C757.08742327 41.90852207 765.52260412 37.06405711 773.97949219 32.25170898 C778.55717465 29.63260347 783.07467501 27.0065408 787.42578125 24.0234375 C793.76011585 19.71365507 800.55699765 16.18915601 807.27978516 12.53173828 C813.82756326 8.96268471 820.22136592 5.36413003 826.31054688 1.04882812 C828 0 828 0 830 0 C828.26180849 9.13074094 820.26965811 17.41490763 814.75878906 24.6706543 C810.5182915 30.26499037 806.45416976 35.96749019 802.42871094 41.71777344 C799.20243835 46.31862731 795.90994479 50.86174821 792.5625 55.375 C787.82126095 61.7788072 783.32430154 68.33370497 778.85375977 74.9284668 C774.90587292 80.73210216 770.81546652 86.40977912 766.62133789 92.03735352 C764.2341714 95.25612039 761.99831211 98.50081042 759.9375 101.9375 C759.298125 102.948125 758.65875 103.95875 758 105 C757.34 105 756.68 105 756 105 C755.78214844 105.66257812 755.56429687 106.32515625 755.33984375 107.0078125 C753.55163153 111.00131268 751.11626598 114.33608388 748.5625 117.875 C748.03043945 118.62096436 747.49837891 119.36692871 746.95019531 120.13549805 C742.98006668 125.68580369 738.93523928 131.18023223 734.87866211 136.66748047 C730.72107355 142.31852758 726.85906572 148.14123659 723 154 C721.39471955 156.40792068 719.77128234 158.70775226 718 161 C717.34 161 716.68 161 716 161 C715.76667969 161.68835937 715.53335938 162.37671875 715.29296875 163.0859375 C713.72863807 166.61158912 711.59852643 169.54677356 709.3125 172.625 C706.22205261 176.85720831 703.24821457 181.09583145 700.5 185.5625 C697.64068564 190.14405254 694.45341484 194.36136227 691.11328125 198.60180664 C687.35629827 203.42350178 683.91906954 208.43484131 680.5 213.5 C676.85155939 218.90136105 673.16275551 224.19487964 669.125 229.3125 C663.9511912 235.89964194 659.30365671 242.81253409 654.62011719 249.75366211 C650.39027826 256.00756606 646.03755679 262.14059288 641.52001953 268.18920898 C639.16456528 271.35674875 636.96831188 274.55281354 634.9375 277.9375 C634.298125 278.948125 633.65875 279.95875 633 281 C632.34 281 631.68 281 631 281 C630.78214844 281.66257812 630.56429687 282.32515625 630.33984375 283.0078125 C628.55163153 287.00131268 626.11626598 290.33608388 623.5625 293.875 C623.03043945 294.62096436 622.49837891 295.36692871 621.95019531 296.13549805 C617.98006668 301.68580369 613.93523928 307.18023223 609.87866211 312.66748047 C605.72107355 318.31852758 601.85906572 324.14123659 598 330 C596.39471955 332.40792068 594.77128234 334.70775226 593 337 C592.34 337 591.68 337 591 337 C590.73316406 337.72832031 590.46632813 338.45664063 590.19140625 339.20703125 C589.01267785 341.97027979 587.64194609 344.22086918 585.9375 346.6875 C583.8177976 349.75500089 583.8177976 349.75500089 582 353 C581.34 353 580.68 353 580 353 C579.78214844 353.66257812 579.56429687 354.32515625 579.33984375 355.0078125 C577.55164313 359.00128678 575.11635537 362.3361778 572.5625 365.875 C572.02753906 366.62458984 571.49257812 367.37417969 570.94140625 368.14648438 C567.0559878 373.57599011 563.11150286 378.96177405 559.14672852 384.33349609 C555.18109515 389.71790871 551.33008124 395.17922003 547.48925781 400.65307617 C544.13722322 405.41955624 540.71666978 410.12890418 537.25 414.8125 C533.33790271 420.10428245 529.62733403 425.49175858 526.01171875 430.9921875 C523.0100782 435.48007726 519.85111602 439.85177097 516.69921875 444.234375 C514.30443937 447.56608868 511.9406174 450.9188231 509.58154297 454.27587891 C505.32374102 460.3347954 501.02753692 466.35783842 496.625 472.3125 C491.67594875 479.01061353 486.89476636 485.8200048 482.13256836 492.65185547 C478.68109368 497.60262831 475.20689256 502.53479064 471.6875 507.4375 C463.76302567 517.87364924 463.76302567 517.87364924 457 529 C456.34 529 455.68 529 455 529 C454.78214844 529.66257812 454.56429688 530.32515625 454.33984375 531.0078125 C452.55164313 535.00128678 450.11635537 538.3361778 447.5625 541.875 C447.02753906 542.62458984 446.49257812 543.37417969 445.94140625 544.14648438 C442.06231657 549.56714625 438.13140657 554.95000205 434.16210938 560.30493164 C431.64395442 563.71288918 429.18801089 567.15410652 426.78515625 570.64453125 C426.24761719 571.42183594 425.71007813 572.19914062 425.15625 573 C424.1161575 574.50915383 423.08324616 576.02328946 422.05859375 577.54296875 C421.35089844 578.56777344 421.35089844 578.56777344 420.62890625 579.61328125 C420.21713135 580.21954346 419.80535645 580.82580566 419.38110352 581.45043945 C417.74007381 583.29163011 416.30674559 584.14606467 414 585 C413.34 584.67 412.68 584.34 412 584 C412 583.01 412 582.02 412 581 C411.34 581 410.68 581 410 581 C409.67 579.68 409.34 578.36 409 577 C408.34 577 407.68 577 407 577 C406.4534375 576.00871094 405.906875 575.01742187 405.34375 573.99609375 C402.96676595 569.84158434 400.27783758 565.95665633 397.5 562.0625 C396.97881592 561.32741211 396.45763184 560.59232422 395.9206543 559.83496094 C391.81402095 554.07199985 387.5806606 548.41098479 383.31298828 542.7668457 C371.64131818 527.28263637 371.64131818 527.28263637 368 520 C367.34 519.34 366.68 518.68 366 518 C363 514.30769231 363 514.30769231 363 512 C362.34 512 361.68 512 361 512 C361 511.01 361 510.02 361 509 C360.34 509 359.68 509 359 509 C358.67 507.68 358.34 506.36 358 505 C357.34 505 356.68 505 356 505 C356 504.01 356 503.02 356 502 C355.34 502 354.68 502 354 502 C352.7734375 500.19921875 352.7734375 500.19921875 351.375 497.6875 C346.04511014 487.52197243 346.04511014 487.52197243 338 480 C337.04276735 478.34908994 336.0906233 476.69494584 335.16894531 475.02392578 C333.13541791 471.5030523 330.74098243 468.24017626 328.375 464.9375 C327.85518555 464.20523193 327.33537109 463.47296387 326.79980469 462.71850586 C324.21574881 459.08266218 321.61297903 455.4610047 318.9921875 451.8515625 C318.52893066 451.210979 318.06567383 450.57039551 317.58837891 449.91040039 C316.71221494 448.70068038 315.83183233 447.49400192 314.94677734 446.29077148 C312 442.22265948 312 442.22265948 312 440 C311.34 440 310.68 440 310 440 C308.36911589 437.78102756 306.85995405 435.56423948 305.375 433.25 C304.47657447 431.87629425 303.5781368 430.50259645 302.6796875 429.12890625 C302.23077148 428.43684082 301.78185547 427.74477539 301.31933594 427.03173828 C299.39722966 424.07175153 297.45111177 421.12846151 295.5 418.1875 C294.8709375 417.23230469 294.241875 416.27710937 293.59375 415.29296875 C292.04056189 413.05835743 290.40703333 411.36006795 288.375 409.5625 C287 408 287 408 287 405 C286.34 405 285.68 405 285 405 C283.60214173 403.00613183 282.32393118 401.01591033 281.0625 398.9375 C277.7930118 393.70003526 274.37354364 388.64066256 270.6875 383.6875 C266.10204604 377.52208813 261.6378016 371.28238844 257.23510742 364.98510742 C254.35072644 360.87090904 251.39133847 356.83136528 248.33227539 352.8449707 C246.99673184 350.99547417 245.86152568 349.11591832 244.75 347.125 C243.19177015 344.01079671 243.19177015 344.01079671 241 342 C238 338.30769231 238 338.30769231 238 336 C237.34 336 236.68 336 236 336 C236 335.01 236 334.02 236 333 C235.34 333 234.68 333 234 333 C231 328.61538462 231 328.61538462 231 326 C230.34 326 229.68 326 229 326 C227.80859375 324.234375 227.80859375 324.234375 226.4375 321.75 C223.48363537 316.66081153 220.11912497 312.06636278 216.55078125 307.39453125 C213.09158951 302.8345018 209.82471793 298.13866065 206.53955078 293.45263672 C204.05366726 289.90787702 201.55632355 286.37402345 199.01171875 282.87109375 C198.54564209 282.22769043 198.07956543 281.58428711 197.59936523 280.92138672 C196.71856962 279.70800192 195.83412331 278.4972564 194.94555664 277.28955078 C192 273.22196439 192 273.22196439 192 271 C191.34 271 190.68 271 190 271 C190 270.01 190 269.02 190 268 C189.34 268 188.68 268 188 268 C185 263.61538462 185 263.61538462 185 261 C184.34 261 183.68 261 183 261 C181.32855935 258.71830314 179.77590259 256.43897496 178.25 254.0625 C177.80333984 253.37969971 177.35667969 252.69689941 176.89648438 251.9934082 C175.59224792 249.99906835 174.29594929 247.99973037 173 246 C171.83682676 244.22687005 170.67094326 242.45550839 169.5 240.6875 C169.0565625 240.01074219 168.613125 239.33398438 168.15625 238.63671875 C166.96417085 236.85114575 166.96417085 236.85114575 165 235 C164.54625 234.21625 164.0925 233.4325 163.625 232.625 C162.13322659 229.9757441 162.13322659 229.9757441 160.0625 228.125 C157.92990041 225.92777618 156.67093737 223.65254857 155.18481445 220.99804688 C153.04824727 217.39498365 150.53994554 214.06105872 148.0625 210.6875 C146.90612212 209.10035358 145.74987607 207.5131111 144.59375 205.92578125 C144.00207031 205.1157666 143.41039062 204.30575195 142.80078125 203.47119141 C139.34297676 198.72608606 135.91960946 193.95603317 132.49047852 189.19018555 C129.96115267 185.68362942 127.40249958 182.20804343 124.78125 178.76953125 C122.73150127 176.04856081 120.967223 173.36630127 119.4375 170.3125 C117.44065132 166.55144521 115.06078589 163.97576406 112 161 C111.1875 158.6875 111.1875 158.6875 111 157 C110.34 157 109.68 157 109 157 C106 152.61538462 106 152.61538462 106 150 C105.34 150 104.68 150 104 150 C103.4534375 149.00871094 102.906875 148.01742188 102.34375 146.99609375 C99.96675059 142.8415575 97.27763351 138.95682493 94.5 135.0625 C93.97881592 134.32668701 93.45763184 133.59087402 92.9206543 132.83276367 C89.30632432 127.75687173 85.58326687 122.77272379 81.8125 117.8125 C77.93425673 112.69998238 74.23387084 107.51515301 70.75 102.125 C70.36690674 101.53565674 69.98381348 100.94631348 69.58911133 100.33911133 C67 96.25560546 67 96.25560546 67 94 C66.34 94 65.68 94 65 94 C65 93.34 65 92.68 65 92 C64.34 92 63.68 92 63 92 C60 87.61538462 60 87.61538462 60 85 C59.34 85 58.68 85 58 85 C58 84.01 58 83.02 58 82 C57.34 82 56.68 82 56 82 C53.70351351 79.4385343 53 78.52032428 53 75 C52.34 75 51.68 75 51 75 C50.484375 74.05125 49.96875 73.1025 49.4375 72.125 C44.89733563 63.3898655 44.89733563 63.3898655 38 57 C37.67 56.01 37.34 55.02 37 54 C36.01 53.505 36.01 53.505 35 53 C34.03638753 51.34208161 33.0779261 49.6808608 32.15136719 48.00195312 C30.19468787 44.59975415 27.90422336 41.44144373 25.625 38.25 C25.11187256 37.52699707 24.59874512 36.80399414 24.07006836 36.05908203 C18.8428698 28.72329535 13.49284065 21.47827686 8.12890625 14.2421875 C7.60184082 13.52643555 7.07477539 12.81068359 6.53173828 12.07324219 C5.52313998 10.70808172 4.50606263 9.34913875 3.47998047 7.99707031 C0 3.33020504 0 3.33020504 0 0 Z " fill="#FFFFFF" transform="translate(1585,1676)"/>
<path d="M0 0 C14.47256587 13.36466279 24.51128519 29.59703046 31.9375 47.75 C32.32421875 46.96496094 32.7109375 46.17992188 33.109375 45.37109375 C40.76961679 29.91788321 40.76961679 29.91788321 43.9375 26.75 C44.80543987 25.61456391 45.65754687 24.4669728 46.5 23.3125 C47.64425395 21.790478 48.79023501 20.26975363 49.9375 18.75 C50.55367187 17.91984375 51.16984375 17.0896875 51.8046875 16.234375 C69.87180035 -7.08242724 97.6552533 -23.43443452 126.9375 -27.25 C155.05034704 -30.66483735 185.26607405 -25.42031419 208.3125 -8.125 C212.33016258 -4.86842468 216.17301685 -1.41440999 220 2.0625 C220.58507324 2.59053223 221.17014648 3.11856445 221.77294922 3.66259766 C223.20137406 4.98281495 224.57480944 6.36203542 225.9375 7.75 C225.9375 8.41 225.9375 9.07 225.9375 9.75 C226.5975 9.75 227.2575 9.75 227.9375 9.75 C229.59494246 11.96800344 231.12324246 14.17927992 232.625 16.5 C233.07125732 17.1815918 233.51751465 17.86318359 233.97729492 18.56542969 C246.06661661 37.16973354 253.93092869 55.4907176 257.359375 77.3984375 C257.74734929 80.61025447 257.74734929 80.61025447 258.9375 82.75 C259.04153412 85.16933785 259.08529886 87.56029422 259.08467102 89.98017883 C259.08834771 90.73381704 259.0920244 91.48745525 259.0958125 92.26393098 C259.10687231 94.80266976 259.11069704 97.34136765 259.11450195 99.88012695 C259.12076483 101.69494762 259.12741147 103.509767 259.13441467 105.32458496 C259.15183979 110.26472287 259.16238037 115.2048511 259.1706202 120.14501214 C259.17576674 123.22958753 259.18184261 126.31415989 259.18813133 129.39873314 C259.20718691 139.0442875 259.22141773 148.68983417 259.2297433 158.33540374 C259.23952061 169.47969318 259.26585149 180.62378425 259.30624419 191.76800376 C259.33637404 200.37527142 259.35120917 208.98248211 259.35452431 217.58980149 C259.35687822 222.73370192 259.36588292 227.87739052 259.39098549 233.02123451 C259.41421673 237.85985371 259.41851943 242.69812086 259.40822411 247.53678131 C259.40772744 249.3133454 259.41408626 251.08992653 259.42778015 252.86643791 C259.44542474 255.29100655 259.4384305 257.71430158 259.42524719 260.13887024 C259.43621644 260.84276723 259.44718568 261.54666422 259.45848733 262.27189142 C259.39596052 267.03123207 258.31412962 269.42178074 254.9375 272.75 C250.42998179 275.35049128 246.92395922 276.29466844 241.86328125 275.390625 C237.72203534 274.01300973 234.80787479 271.43567713 232.7887392 267.52516556 C231.7395984 264.10481154 231.68995344 261.17714741 231.69267273 257.59735107 C231.69040816 256.88792933 231.68814358 256.17850758 231.68581039 255.44758821 C231.68052272 253.07531862 231.68933949 250.70331123 231.69799805 248.33105469 C231.69688474 246.62705909 231.69482628 244.92306388 231.69189453 243.21907043 C231.6871717 239.54795957 231.68829372 235.87691267 231.69367027 232.20580292 C231.7012998 226.37643361 231.69059755 220.54718648 231.6764679 214.71783447 C231.63879917 198.13984778 231.62045216 181.56191432 231.63208008 164.98388672 C231.6383435 155.82840747 231.62647049 146.6731249 231.59563476 137.51769376 C231.58018659 132.68503637 231.57375264 127.85276597 231.59021568 123.02010345 C231.70523325 86.88136435 229.49800797 51.631285 203.2265625 24.05078125 C202.47117187 23.29152344 201.71578125 22.53226563 200.9375 21.75 C200.20273438 20.98042969 199.46796875 20.21085937 198.7109375 19.41796875 C183.35891917 4.34834541 162.01343674 -0.52197682 141.1262207 -0.49658203 C124.2979977 -0.28428439 106.34092133 4.16082016 92.9375 14.75 C92.00679687 15.44609375 91.07609375 16.1421875 90.1171875 16.859375 C82.02454605 23.19274657 75.96285316 30.46886722 69.9375 38.75 C69.51831299 39.30284668 69.09912598 39.85569336 68.66723633 40.42529297 C56.92881388 56.18644592 51.49155885 76.17179405 47.25 95.0625 C47.05954102 95.90135742 46.86908203 96.74021484 46.67285156 97.60449219 C46.02716443 100.64361643 45.47832831 103.6902283 44.9375 106.75 C44.81438761 107.43605883 44.69127522 108.12211765 44.56443214 108.82896614 C41.70773341 125.29006736 41.57756467 141.59624304 41.73211288 158.24543381 C41.76258187 161.97940878 41.77268353 165.71343705 41.78442383 169.44750977 C41.81733934 178.88179837 41.87616148 188.31586011 41.9375 197.75 C42.0038416 207.99721569 42.06531907 218.244347 42.09775448 228.4917345 C42.11263596 232.91758774 42.14210167 237.34302365 42.18304443 241.76870918 C42.20005387 243.85194581 42.21016659 245.93507915 42.2171936 248.01837158 C42.22578206 250.55135491 42.24514117 253.08433445 42.2774353 255.61712646 C42.27878958 262.79413769 41.87213452 267.64767208 36.75 273.0625 C33.19893125 275.19314125 30.02914248 275.93669091 25.9375 275.75 C21.67514394 274.54233245 19.55994668 273.5189326 16.76597023 270.06742477 C14.67244554 266.26910717 14.43583364 264.04355547 14.43197632 259.73370361 C14.4258862 259.0511569 14.41979608 258.36861019 14.41352141 257.66538024 C14.39797137 255.39017497 14.41068926 253.11603009 14.42333984 250.84082031 C14.41787622 249.20413046 14.41063316 247.56744573 14.40174866 245.93077087 C14.38642148 242.40965326 14.3836059 238.888827 14.39051437 235.36768341 C14.4013288 229.78372395 14.38388094 224.20006657 14.36270142 218.6161499 C14.33243565 209.76607943 14.32074773 200.9160986 14.31712496 192.06598067 C14.31049256 176.26598714 14.2811375 160.46605794 14.2320286 144.66614032 C14.21567175 139.13320069 14.21008665 133.60039142 14.21361899 128.06743002 C14.2140613 124.59760667 14.20641361 121.12783096 14.19694328 117.65802193 C14.19429818 116.06914782 14.19494645 114.48026358 14.19945335 112.89139366 C14.26948654 86.32686497 9.68462338 62.19426096 -2.64453125 38.54296875 C-4.0625 35.75 -4.0625 35.75 -5.0625 32.75 C-5.7225 32.75 -6.3825 32.75 -7.0625 32.75 C-8.3671875 31.16796875 -8.3671875 31.16796875 -9.9375 28.9375 C-22.87352702 12.04363309 -39.65610829 3.83022846 -60.3515625 0.16796875 C-87.47770874 -2.88729193 -114.89334431 1.94439712 -136.625 19 C-162.07189142 40.59238332 -172.36502658 72.32524835 -175.0625 104.75 C-176.24462016 120.94089816 -176.17397556 137.15147728 -176.10709953 153.37454224 C-176.08847401 157.90585593 -176.07912487 162.43716251 -176.07118225 166.96850586 C-176.04726576 179.83450738 -176.01089785 192.7004597 -175.96655273 205.56640625 C-175.94200042 212.7132937 -175.92464807 219.86016332 -175.91499335 227.00708675 C-175.9084734 231.50919221 -175.89297024 236.01114716 -175.87067592 240.51320076 C-175.85619111 243.95801533 -175.85476648 247.40281339 -175.85131836 250.84765625 C-175.83817596 252.70680664 -175.83817596 252.70680664 -175.82476807 254.60351562 C-175.82607224 255.74119385 -175.8273764 256.87887207 -175.82872009 258.05102539 C-175.82557769 259.03680069 -175.82243528 260.02257599 -175.81919765 261.03822327 C-176.29253518 266.31390484 -178.51974838 269.89465265 -182.0625 273.75 C-185.54899431 276.27470277 -188.86017625 276.11226929 -193.0625 275.75 C-197.82774763 273.82557307 -201.03144934 272.09226378 -203.1239109 267.3387661 C-204.41465682 262.40350188 -204.34495531 257.72338262 -204.32992554 252.64224243 C-204.33445665 251.51978351 -204.33898776 250.39732459 -204.34365618 249.24085176 C-204.35632166 245.4777461 -204.3546784 241.71478478 -204.35302734 237.95166016 C-204.3590112 235.25442466 -204.36575977 232.55720048 -204.37338257 229.85997009 C-204.38998002 223.29278621 -204.39549153 216.72563823 -204.39660732 210.15843512 C-204.3975583 204.8196825 -204.40167109 199.48094172 -204.40800858 194.14219284 C-204.42561683 179.00034072 -204.43484799 163.85851693 -204.43334763 148.71665449 C-204.43326772 147.90072492 -204.4331878 147.08479534 -204.43310547 146.24414062 C-204.43298283 145.01874927 -204.43298283 145.01874927 -204.43285771 143.76860254 C-204.43204471 130.52766019 -204.45118678 117.28683157 -204.4793822 104.04592212 C-204.50811569 90.44485617 -204.52192227 76.84384569 -204.52019465 63.24274862 C-204.51953095 55.60889276 -204.52501439 47.97515616 -204.54655075 40.34132767 C-204.56476859 33.84224525 -204.56910494 27.34333616 -204.5555319 20.84423925 C-204.54900541 17.52973044 -204.55105032 14.21562288 -204.5662384 10.90113258 C-204.58165264 7.30436588 -204.57240668 3.70847249 -204.55697632 0.11172485 C-204.57240701 -1.45219814 -204.57240701 -1.45219814 -204.58814943 -3.04771554 C-204.52005436 -10.23038303 -203.26696014 -15.94744414 -198.1484375 -21.22265625 C-193.98338627 -23.27398298 -189.5707677 -22.81190003 -185.0625 -22.25 C-181.59705059 -20.82669042 -179.79716594 -19.80211451 -178.17240906 -16.36952209 C-176.21068682 -10.65662799 -175.65710427 -5.63675978 -175.76953125 0.37890625 C-175.77377609 1.25401352 -175.77802094 2.12912079 -175.78239441 3.03074646 C-175.79902019 5.79166072 -175.83664034 8.55181105 -175.875 11.3125 C-175.89006772 13.19855707 -175.90375244 15.08462573 -175.91601562 16.97070312 C-175.94887063 21.56409083 -176.00053865 26.15691647 -176.0625 30.75 C-175.60286865 30.0168457 -175.1432373 29.28369141 -174.66967773 28.52832031 C-169.02971997 19.58784418 -163.3763442 11.30681578 -155.17578125 4.5234375 C-152.81575175 2.54293215 -150.61220703 0.43043751 -148.375 -1.6875 C-107.03569903 -38.74815186 -40.38511104 -36.12330153 0 0 Z " fill="#FFFFFF" transform="translate(3331.0625,2808.25)"/>
<path d="M0 0 C0.70465393 0.00215515 1.40930786 0.0043103 2.13531494 0.00653076 C39.063479 0.18753579 70.70660774 13.81284207 97.375 39.3125 C98.220625 40.116875 99.06625 40.92125 99.9375 41.75 C101.1440625 43.0184375 101.1440625 43.0184375 102.375 44.3125 C102.99375 44.93640625 103.6125 45.5603125 104.25 46.203125 C111.23571178 53.53812237 116.63653929 61.79211629 122.08447266 70.29931641 C123.13029921 71.93077417 124.19341674 73.55113901 125.26171875 75.16796875 C138.42106005 95.78772401 145.31639481 124.62309535 145.8125 148.8125 C145.88114258 150.17955078 145.88114258 150.17955078 145.95117188 151.57421875 C146.04674954 157.33381216 145.19996873 160.62167274 141.35571289 164.95507812 C135.59433878 168.90346221 128.81931673 168.59433884 122.11817932 168.55300903 C121.09947736 168.55471788 120.0807754 168.55642673 119.03120369 168.55818737 C115.62562946 168.56147553 112.22025327 168.55048951 108.81469727 168.53955078 C106.37034612 168.53898652 103.92599463 168.53930351 101.48164368 168.54043579 C96.22317664 168.54089089 90.96475419 168.53522655 85.70630074 168.52396011 C78.10353562 168.50768153 70.50079448 168.5024947 62.89801382 168.49998413 C50.56195978 168.49561072 38.22593224 168.48231125 25.88989258 168.46337891 C13.90909965 168.44501093 1.92831394 168.43085892 -10.05249023 168.42236328 C-10.79142607 168.42183783 -11.53036191 168.42131239 -12.29168975 168.42077102 C-15.99884493 168.41816088 -19.70600017 168.41563348 -23.41315544 168.41314721 C-54.15045623 168.39242575 -84.88772408 168.35706083 -115.625 168.3125 C-114.86098365 171.93897047 -114.0875141 175.56336531 -113.3125 179.1875 C-113.09916016 180.20070313 -112.88582031 181.21390625 -112.66601562 182.2578125 C-110.71930777 191.32307893 -108.46650671 200.02543987 -104.5 208.4375 C-104.06192017 209.36695435 -104.06192017 209.36695435 -103.61499023 210.31518555 C-100.83660481 216.09656722 -97.70392664 221.6720817 -94.47021484 227.20947266 C-91.625 232.11403395 -91.625 232.11403395 -91.625 234.3125 C-90.965 234.3125 -90.305 234.3125 -89.625 234.3125 C-89.295 235.6325 -88.965 236.9525 -88.625 238.3125 C-87.965 238.3125 -87.305 238.3125 -86.625 238.3125 C-86.2228125 239.5190625 -86.2228125 239.5190625 -85.8125 240.75 C-85.420625 241.595625 -85.02875 242.44125 -84.625 243.3125 C-83.635 243.6425 -82.645 243.9725 -81.625 244.3125 C-80.15234375 245.84375 -80.15234375 245.84375 -78.5625 247.8125 C-66.50400217 261.81030263 -49.18861908 272.97208429 -31.4375 278.4375 C-29.96216797 278.90542969 -29.96216797 278.90542969 -28.45703125 279.3828125 C-18.33996004 281.83731092 -8.39030709 282.67513855 2 282.625 C3.21840576 282.62008545 4.43681152 282.6151709 5.69213867 282.61010742 C38.8750364 282.18342328 66.06624936 270.06115997 89.40893555 246.64819336 C93.88395931 242.02553734 97.69281601 237.16329498 101.3125 231.8359375 C104.57580217 227.84333674 107.72996187 225.51812977 112.875 224.875 C117.88834946 225.50166868 120.95578568 227.08002441 124.75 230.375 C127.19202985 234.78943857 127.40045382 238.38891693 126.375 243.3125 C124.5016234 247.34433225 122.05513237 250.77711203 119.375 254.3125 C118.71113281 255.19808594 118.04726562 256.08367188 117.36328125 256.99609375 C108.81988077 267.87669066 99.15289863 277.96695169 87.375 285.3125 C85.89966797 286.27736328 85.89966797 286.27736328 84.39453125 287.26171875 C65.84154236 299.12568851 46.02844777 305.83782347 24.375 309.3125 C23.33730469 309.51746094 22.29960938 309.72242187 21.23046875 309.93359375 C-9.66056989 315.68353034 -45.54038939 307.7306051 -71.625 290.3125 C-100.6456974 270.33473114 -100.6456974 270.33473114 -106.625 257.3125 C-107.285 257.3125 -107.945 257.3125 -108.625 257.3125 C-114.21703755 250.49117833 -118.65461101 242.74697887 -122.9375 235.0625 C-123.54948242 233.96542725 -123.54948242 233.96542725 -124.17382812 232.84619141 C-129.36051265 223.36494912 -133.13665106 213.53089588 -136.625 203.3125 C-136.91503906 202.47976562 -137.20507812 201.64703125 -137.50390625 200.7890625 C-149.43702884 164.17749267 -145.48386453 118.8642947 -128.37109375 84.609375 C-122.64760808 73.58633653 -116.80253932 62.72671823 -108.625 53.3125 C-107.91214844 52.47589844 -107.19929688 51.63929688 -106.46484375 50.77734375 C-104.23666076 48.23477868 -101.9513028 45.76548265 -99.625 43.3125 C-98.78195312 42.41660156 -97.93890625 41.52070313 -97.0703125 40.59765625 C-86.54784892 29.72444388 -75.02491223 21.29550141 -61.625 14.3125 C-60.74787354 13.84650391 -60.74787354 13.84650391 -59.85302734 13.37109375 C-41.29878118 3.63304306 -20.82805902 -0.1147129 0 0 Z M-78.625 60.3125 C-79.27210937 60.90675781 -79.91921875 61.50101563 -80.5859375 62.11328125 C-85.08622927 66.38757583 -88.35369881 71.05908036 -91.625 76.3125 C-92.23085937 77.23546875 -92.83671875 78.1584375 -93.4609375 79.109375 C-101.14862928 91.08151161 -107.68611204 103.83256461 -111.5625 117.5625 C-111.74965576 118.22145264 -111.93681152 118.88040527 -112.12963867 119.55932617 C-113.99788488 126.77489268 -114.62432379 133.80742843 -115.625 141.3125 C-39.065 141.3125 37.495 141.3125 116.375 141.3125 C115.05275721 128.02404009 115.05275721 128.02404009 112 115.375 C111.77940918 114.66883545 111.55881836 113.9626709 111.33154297 113.23510742 C107.3693052 100.76251007 102.19831973 87.8932193 94.375 77.3125 C93.715 77.3125 93.055 77.3125 92.375 77.3125 C92.30796875 76.77496094 92.2409375 76.23742188 92.171875 75.68359375 C91.04825929 72.34028622 88.8949469 70.00249634 86.625 67.375 C86.19445313 66.86259766 85.76390625 66.35019531 85.3203125 65.82226562 C65.66674355 42.66753694 38.51127025 28.82815171 8.375 26.3125 C-26.53369448 24.68266953 -53.55384766 36.70309329 -78.625 60.3125 Z " fill="#FFFFFF" transform="translate(1704.625,2779.6875)"/>
<path d="M0 0 C0.70310303 0.00182281 1.40620605 0.00364563 2.13061523 0.00552368 C39.81220936 0.16982674 72.837038 15.32605212 99.69042969 41.72998047 C125.01209213 67.42425348 139.534271 100.95215132 143.890625 136.5 C144.20598001 139.2692302 144.20598001 139.2692302 144.7734375 141.79296875 C146.231741 149.502852 146.37638975 156.96567185 142.125 163.7265625 C136.26640408 168.68195821 129.14600412 168.74075765 121.8729248 168.67326355 C120.85336842 168.67582682 119.83381204 168.6783901 118.78336 168.68103105 C115.38080101 168.68595655 111.97868972 168.669496 108.57617188 168.65307617 C106.13167328 168.65222964 103.68717393 168.65270556 101.24267578 168.65440369 C95.98693038 168.65508595 90.73128546 168.64659914 85.47557068 168.62969017 C77.87679806 168.60525897 70.2780794 168.5974907 62.67927176 168.5937262 C50.34930151 168.58716816 38.01939097 168.56722462 25.68945312 168.53881836 C13.71549782 168.51126099 1.74155876 168.49003564 -10.23242188 168.47729492 C-10.97109499 168.47650675 -11.70976811 168.47571858 -12.47082525 168.47490653 C-16.17670975 168.47099128 -19.88259436 168.46720019 -23.58847904 168.46347082 C-54.30902944 168.43239509 -85.02950563 168.37935322 -115.75 168.3125 C-115.14409041 171.44912021 -114.52975053 174.58403579 -113.9140625 177.71875 C-113.66088257 179.03020996 -113.66088257 179.03020996 -113.40258789 180.36816406 C-110.69117345 194.35778997 -110.69117345 194.35778997 -105.6015625 207.59375 C-104.75 209.3125 -104.75 209.3125 -104.75 212.3125 C-104.09 212.3125 -103.43 212.3125 -102.75 212.3125 C-102.27949219 213.26511719 -101.80898438 214.21773437 -101.32421875 215.19921875 C-100.69542084 216.46619961 -100.06650852 217.73312369 -99.4375 219 C-99.12876953 219.62583984 -98.82003906 220.25167969 -98.50195312 220.89648438 C-97.09989834 223.71535242 -95.6616506 226.45708987 -94.01953125 229.14453125 C-92.75 231.3125 -92.75 231.3125 -92.75 233.3125 C-92.09 233.3125 -91.43 233.3125 -90.75 233.3125 C-89.51245117 234.99780273 -89.51245117 234.99780273 -88.10546875 237.30859375 C-84.91654914 242.24605759 -81.25148052 246.27317445 -77.0625 250.375 C-76.00639526 251.41696533 -76.00639526 251.41696533 -74.92895508 252.47998047 C-51.51418032 275.22423515 -23.02235623 282.90285047 8.8828125 282.59765625 C18.92264892 282.33811774 28.51442175 280.69663494 38.25 278.3125 C39.36890625 278.04695313 40.4878125 277.78140625 41.640625 277.5078125 C65.37598898 270.69848677 85.77177437 252.68805132 99.9609375 233.16015625 C102.64397666 229.82238228 105.40531285 227.23484357 109.25 225.3125 C115.35067939 224.71439418 118.38912777 225.85380245 123.25 229.3125 C126.22933289 232.77237046 126.60294651 235.67713457 126.53344727 240.19921875 C126.06146359 243.71815993 124.25584926 246.35943508 122.25 249.1875 C121.63596313 250.09193848 121.63596313 250.09193848 121.00952148 251.01464844 C109.59638704 267.60835348 95.40928849 282.2188223 77.25 291.3125 C76.13753906 291.91578125 75.02507812 292.5190625 73.87890625 293.140625 C43.50483812 309.37341394 7.00925728 316.13597699 -26.75 308.3125 C-27.51554199 308.14089355 -28.28108398 307.96928711 -29.06982422 307.79248047 C-68.33483512 298.83477462 -98.31432661 274.28867861 -120.234375 241.0625 C-132.02647948 222.29657029 -138.58571692 201.78659259 -142.36450195 180.08984375 C-142.69343982 178.21940171 -142.69343982 178.21940171 -143.75 176.3125 C-143.89869454 173.44645972 -143.9865127 170.60633246 -144.0234375 167.73828125 C-144.03596558 166.87067673 -144.04849365 166.0030722 -144.06140137 165.10917664 C-144.27633912 146.62422067 -144.32474985 129.1185822 -138.75 111.3125 C-138.28730521 109.70976676 -137.82506199 108.10690309 -137.36328125 106.50390625 C-134.26551461 96.19663554 -129.86426876 86.75686597 -124.75 77.3125 C-124.43305176 76.70954102 -124.11610352 76.10658203 -123.78955078 75.48535156 C-113.98444874 56.85108298 -99.62061823 39.91885975 -82.75 27.3125 C-81.75484375 26.56355469 -80.7596875 25.81460938 -79.734375 25.04296875 C-68.44189689 16.879564 -56.06438079 10.48734821 -42.75 6.3125 C-41.10257813 5.79042969 -41.10257813 5.79042969 -39.421875 5.2578125 C-26.33353206 1.30824646 -13.67850007 -0.07381213 0 0 Z M-66.75 49.3125 C-67.27190918 49.72371094 -67.79381836 50.13492188 -68.33154297 50.55859375 C-94.48254135 71.24005213 -111.18903834 103.45345983 -115.75 136.3125 C-115.75 137.9625 -115.75 139.6125 -115.75 141.3125 C-39.19 141.3125 37.37 141.3125 116.25 141.3125 C113.03293397 118.79303778 107.79853367 95.49020837 93.25 77.3125 C92.60933594 76.40113281 91.96867188 75.48976563 91.30859375 74.55078125 C75.33678007 52.04905479 53.22527174 35.70138015 26.25 29.3125 C25.40695312 29.09980469 24.56390625 28.88710937 23.6953125 28.66796875 C-7.56625899 21.15004758 -41.85263047 29.25131016 -66.75 49.3125 Z " fill="#FFFFFF" transform="translate(553.75,2779.6875)"/>
<path d="M0 0 C0.72261017 0.00054382 1.44522034 0.00108765 2.18972778 0.00164795 C14.16014198 0.04291898 25.40074062 1.05683751 36.9375 4.375 C37.68418945 4.57867188 38.43087891 4.78234375 39.20019531 4.9921875 C58.14064738 10.25748692 74.168334 19.53079321 88.9375 32.375 C90.13632813 33.38240234 90.13632813 33.38240234 91.359375 34.41015625 C122.74526603 61.11249378 141.53878248 100.51073233 144.9375 141.375 C145.12505558 144.43905912 145.21075141 147.49325988 145.25 150.5625 C145.27900391 151.33013672 145.30800781 152.09777344 145.33789062 152.88867188 C145.39661214 158.16005709 144.69542165 161.38035888 140.9375 165.375 C134.6733652 168.30456101 129.41406934 168.80900961 122.5604248 168.77372742 C121.03109023 168.78369766 121.03109023 168.78369766 119.47086 168.79386932 C116.06836131 168.81246152 112.66621544 168.80989651 109.26367188 168.80737305 C106.81916814 168.81639248 104.37466893 168.82672015 101.93017578 168.83825684 C96.6744669 168.86012413 91.41881977 168.87292082 86.16307068 168.87738609 C78.56424856 168.88385785 70.96554571 168.90681318 63.36677176 168.93372939 C51.03684902 168.97695932 38.70693131 169.00694771 26.37695312 169.02856445 C14.40296964 169.04958553 2.4290273 169.07687046 -9.54492188 169.11254883 C-10.65293155 169.11584707 -10.65293155 169.11584707 -11.78332525 169.11921193 C-15.48921016 169.13028187 -19.19509469 169.14147462 -22.90097904 169.15272844 C-53.62145173 169.24585981 -84.34193943 169.31726128 -115.0625 169.375 C-114.43425497 172.75365142 -113.80016156 176.13118015 -113.16503906 179.50854492 C-112.98800446 180.4610186 -112.81096985 181.41349228 -112.62857056 182.3948288 C-111.44557148 188.66542097 -110.06596993 194.70475298 -107.8125 200.6875 C-107.51730469 201.49815918 -107.22210937 202.30881836 -106.91796875 203.14404297 C-102.71393306 214.36873032 -97.58148704 224.98169117 -90.3125 234.5546875 C-89.0625 236.375 -89.0625 236.375 -89.0625 238.375 C-88.4025 238.375 -87.7425 238.375 -87.0625 238.375 C-85.6296282 239.99218311 -84.26625251 241.67123372 -82.9375 243.375 C-75.32180716 252.82812984 -67.27013747 259.83068039 -57.0625 266.375 C-55.9796875 267.08011719 -54.896875 267.78523438 -53.78125 268.51171875 C-37.12956973 278.72448994 -18.39004962 282.77582861 1 282.6875 C2.27770264 282.68258545 3.55540527 282.6776709 4.87182617 282.67260742 C14.82804893 282.54989309 24.27227623 281.77226117 33.9375 279.375 C34.60458984 279.21402832 35.27167969 279.05305664 35.95898438 278.88720703 C51.11370809 275.0839121 64.58258358 267.78989148 76.71484375 258.02734375 C78.9375 256.375 78.9375 256.375 80.9375 256.375 C80.9375 255.715 80.9375 255.055 80.9375 254.375 C81.865625 253.6325 82.79375 252.89 83.75 252.125 C88.72931314 248.02796841 92.39723565 242.90576897 96.2890625 237.8125 C104.25073925 227.42223387 104.25073925 227.42223387 109.9375 225.375 C114.98407149 224.84378195 117.87047187 225.3247289 121.9375 228.375 C125.23803423 231.20402934 125.83213015 233.5320412 126.375 237.875 C126.21215491 247.75426874 117.95904049 256.23203902 111.9375 263.375 C111.27621094 264.22449219 110.61492188 265.07398437 109.93359375 265.94921875 C108.11377731 268.1607765 106.30225738 269.96338324 104.125 271.8125 C103.49980469 272.34746094 102.87460938 272.88242188 102.23046875 273.43359375 C101.47378906 274.07425781 100.71710937 274.71492188 99.9375 275.375 C99.42840088 275.83076416 98.91930176 276.28652832 98.39477539 276.75610352 C94.18403232 280.48353897 89.807014 283.5310412 85 286.4375 C84.33548828 286.84548828 83.67097656 287.25347656 82.98632812 287.67382812 C81.64320196 288.4984633 80.2975653 289.31902333 78.94946289 290.13549805 C77.61042222 290.96043549 76.28373894 291.80578285 74.97045898 292.67114258 C70.1398414 295.8330993 65.31134576 298.01588799 59.875 299.9375 C59.04210449 300.2355957 58.20920898 300.53369141 57.35107422 300.84082031 C43.70580697 305.64265857 30.30274735 308.27797415 15.96777344 310.04956055 C13.74220926 310.35004641 13.74220926 310.35004641 10.9375 311.375 C-3.37981085 312.68462028 -17.16301698 310.63414631 -31.0625 307.375 C-32.15304688 307.12492187 -33.24359375 306.87484375 -34.3671875 306.6171875 C-61.24756372 299.83865784 -90.72904141 282.24184203 -107.0625 259.375 C-107.0625 258.715 -107.0625 258.055 -107.0625 257.375 C-107.7225 257.375 -108.3825 257.375 -109.0625 257.375 C-109.3925 256.055 -109.7225 254.735 -110.0625 253.375 C-110.7225 253.375 -111.3825 253.375 -112.0625 253.375 C-113.29589844 251.82128906 -113.29589844 251.82128906 -114.671875 249.640625 C-115.17630127 248.845354 -115.68072754 248.05008301 -116.20043945 247.23071289 C-116.73241943 246.37082764 -117.26439941 245.51094238 -117.8125 244.625 C-118.35672607 243.74900146 -118.90095215 242.87300293 -119.46166992 241.97045898 C-141.33643296 206.41781893 -149.95336624 162.41080663 -141.0625 121.375 C-134.42762366 94.98664889 -124.04777251 72.54465082 -107.0625 51.375 C-106.35996094 50.45589844 -105.65742188 49.53679688 -104.93359375 48.58984375 C-100.74416387 43.15424294 -96.39781018 38.67383273 -91.0625 34.375 C-89.91122973 33.42475606 -88.76021023 32.47420826 -87.609375 31.5234375 C-62.08659993 10.58891578 -33.14375974 -0.09441716 0 0 Z M-71.0625 53.375 C-72.624466 54.68813545 -74.18690172 56.00071257 -75.75 57.3125 C-78.29053669 59.4532835 -78.97838509 60.12265526 -80.0625 63.375 C-80.7225 63.375 -81.3825 63.375 -82.0625 63.375 C-83.84758384 65.35537506 -85.49477862 67.33415881 -87.125 69.4375 C-87.61452148 70.06873779 -88.10404297 70.69997559 -88.60839844 71.3503418 C-104.35129247 92.04034578 -112.84208565 115.61168516 -116.0625 141.375 C-39.1725 141.375 37.7175 141.375 116.9375 141.375 C114.54444529 124.01604596 114.54444529 124.01604596 109.0546875 107.796875 C107.84370531 105.17166885 106.80480159 102.50406269 105.75 99.8125 C102.08941799 90.93558862 97.26163168 82.36119752 91.9375 74.375 C91.2775 74.375 90.6175 74.375 89.9375 74.375 C89.69773437 73.65441406 89.45796875 72.93382813 89.2109375 72.19140625 C87.75247908 68.9657973 85.96978512 66.89973168 83.5625 64.3125 C82.79164063 63.47589844 82.02078125 62.63929688 81.2265625 61.77734375 C80.47117187 60.98457031 79.71578125 60.19179687 78.9375 59.375 C78.22335938 58.61316406 77.50921875 57.85132812 76.7734375 57.06640625 C75.10839592 55.14914504 75.10839592 55.14914504 72.9375 55.375 C72.9375 54.715 72.9375 54.055 72.9375 53.375 C52.40758869 34.36897301 23.79001636 25.40601799 -3.82421875 26.125 C-29.27040185 27.32218575 -52.21596468 36.25464885 -71.0625 53.375 Z " fill="#FFFFFF" transform="translate(2417.0625,2779.625)"/>
<path d="M0 0 C4.47150589 2.27793697 6.98487718 4.42086602 9 9 C9.45304609 12.88109013 9.4156583 16.74501732 9.39872742 20.64875793 C9.40537424 21.8413438 9.41202107 23.03392966 9.41886932 24.26265448 C9.43429603 27.56937536 9.43633717 30.87561556 9.43273985 34.18233812 C9.43211624 37.74946434 9.4487338 41.31651507 9.46325684 44.88360596 C9.4860546 51.06263092 9.49792997 57.24159947 9.50238609 63.42066383 C9.50884468 72.35453671 9.53177691 81.28830755 9.55872939 90.22213932 C9.60201062 104.71668205 9.63196974 119.21122048 9.65356445 133.70581055 C9.67457014 147.78591014 9.70184165 161.8659746 9.73754883 175.94604492 C9.74084707 177.24789807 9.74084707 177.24789807 9.74421193 178.57605127 C9.75528148 182.9300631 9.76647431 187.2840746 9.77772844 191.63808596 C9.87093246 227.75869365 9.94252166 263.87931868 10 300 C10.99906372 298.68805664 10.99906372 298.68805664 12.01831055 297.34960938 C12.91184679 296.18091325 13.80548849 295.01229776 14.69921875 293.84375 C15.13584839 293.26979492 15.57247803 292.69583984 16.02233887 292.10449219 C20.07445814 286.81406924 24.43444096 281.85429005 29 277 C29.52851562 276.43023438 30.05703125 275.86046875 30.6015625 275.2734375 C31.68803191 274.13613911 32.83618378 273.05801474 34 272 C34.66 272 35.32 272 36 272 C36.33 271.01 36.66 270.02 37 269 C61.03328616 248.25832714 92.56287884 240.30394038 123.6640625 242.46484375 C136.84430582 243.63280301 149.00201545 247.55598058 161 253 C162.08796875 253.48984375 163.1759375 253.9796875 164.296875 254.484375 C188.51953436 266.41846571 208.51716787 291.57652229 217.18457031 317.00048828 C217.77312144 318.81602662 218.33481513 320.64020961 218.89453125 322.46484375 C219.68404398 324.98961061 220.52690336 327.35880069 221.50390625 329.8046875 C223.28714821 334.49395339 224.21937017 339.26449624 225.125 344.1875 C225.29386719 345.04408203 225.46273438 345.90066406 225.63671875 346.78320312 C227.99693747 359.3183805 228.14999032 371.9243556 228.14526367 384.63476562 C228.14826302 386.26401851 228.15166731 387.8932707 228.15544128 389.52252197 C228.16419776 393.90624944 228.16661559 398.28995734 228.16725707 402.6736927 C228.16797132 405.41610539 228.17011248 408.15851321 228.17275429 410.90092468 C228.18197367 420.47692172 228.18609267 430.05290492 228.18530273 439.62890625 C228.18469996 448.54558356 228.19529953 457.46220077 228.2110464 466.37886286 C228.22411342 474.05217857 228.22948712 481.72547457 228.22884732 489.39880133 C228.22859248 493.97461415 228.23143752 498.55037323 228.24202538 503.12617493 C228.25169445 507.42069582 228.25179379 511.71511136 228.24450874 516.00963593 C228.24346205 517.58462935 228.2458308 519.15962931 228.2518692 520.73461151 C228.25957891 522.88460001 228.25495165 525.03422354 228.24723816 527.1842041 C228.24778293 528.38685158 228.24832769 529.58949905 228.24888897 530.82859039 C227.8140228 536.3697711 225.7306524 539.94017238 222 544 C218.50707651 546.52935839 215.21055192 546.35682643 211 546 C206.85013567 544.7550407 204.65602453 544.04206023 202.32095432 540.33292484 C200.83111243 536.57387657 200.62120791 533.83434832 200.61473083 529.79820251 C200.60949514 529.09579376 200.60425944 528.39338501 200.59886509 527.66969115 C200.5849522 525.32771246 200.59219261 522.98628883 200.59936523 520.64428711 C200.59361985 518.96007805 200.58653591 517.27587311 200.57821655 515.5916748 C200.56311774 511.96910221 200.55732801 508.34667685 200.55874443 504.72407341 C200.56078199 498.98609649 200.54118247 493.24831649 200.51856995 487.51039124 C200.4776016 476.3547811 200.45900366 465.19918646 200.44239807 454.04351807 C200.42004632 439.86958193 200.38630017 425.69569168 200.33519894 411.52182966 C200.3153769 405.82861772 200.30570386 400.13550858 200.30424678 394.44226348 C200.30147721 390.88417896 200.29060462 387.32615022 200.27773666 383.76808929 C200.27349212 382.13035416 200.27257291 380.49260611 200.27541161 378.85486794 C200.30956522 356.57733879 196.06955165 334.96225057 186 315 C185.46632813 313.93265625 184.93265625 312.8653125 184.3828125 311.765625 C180.02715673 303.72120812 174.40476175 297.43217158 168 291 C166.93845703 289.88625 166.93845703 289.88625 165.85546875 288.75 C150.96442895 274.17215606 129.51863011 269.72858655 109.42114258 269.75341797 C81.9778596 270.09939149 58.86059918 279.44341102 39.1640625 298.8046875 C34.3308323 304.14937063 30.21737233 310.56525534 27 317 C26.34 317 25.68 317 25 317 C24.896875 317.721875 24.79375 318.44375 24.6875 319.1875 C24 322 24 322 22.640625 324.21875 C10.95679938 344.02561628 8.6398247 368.96497684 8.8046875 391.42456055 C8.8085388 392.99514067 8.81146026 394.56572329 8.8135376 396.13630676 C8.81979289 399.48098675 8.83222522 402.82556212 8.84967041 406.17020226 C8.87699143 411.46142635 8.88855888 416.75261744 8.89794922 422.04389954 C8.92001203 433.25847896 8.95916733 444.47297564 9 455.6875 C9.04412688 467.83665937 9.08519119 479.98578664 9.10683632 492.13501006 C9.11678603 497.39395888 9.13647793 502.65275301 9.16369629 507.91163957 C9.17861061 511.17539853 9.18524519 514.43913626 9.1896286 517.70292473 C9.19337218 519.21504233 9.20057327 520.72715594 9.21149445 522.23923874 C9.22593672 524.30364964 9.2280017 526.36772176 9.22705078 528.43217468 C9.231492 529.58667964 9.23593323 530.7411846 9.24050903 531.93067455 C8.90793314 536.17493781 7.89134341 538.96009935 5.125 542.1875 C2.46303631 544.45799844 0.38017616 545.94815081 -3.18359375 546.08203125 C-11.50093558 545.08740978 -11.50093558 545.08740978 -15 542 C-17.89752586 536.50379472 -18.43073754 532.10967264 -18.38031673 525.95909882 C-18.38497665 525.0667229 -18.38963657 524.17434698 -18.3944377 523.25492936 C-18.40639955 520.26123392 -18.39698756 517.26799132 -18.38768005 514.27429199 C-18.39185243 512.10771645 -18.39732942 509.94114309 -18.40399987 507.7745738 C-18.41848555 501.81803388 -18.41419996 495.86163195 -18.40683305 489.90508437 C-18.40211147 483.48236899 -18.41460222 477.05968389 -18.42485046 470.63697815 C-18.44106796 458.78122275 -18.44347982 446.92551543 -18.43854547 435.06975128 C-18.43398935 424.11745366 -18.43458617 413.16517245 -18.44038582 402.21287537 C-18.44114268 400.74409238 -18.44189866 399.27530938 -18.44265376 397.80652639 C-18.44379895 395.5932482 -18.44494883 393.37997002 -18.44611301 391.16669184 C-18.45681858 370.58888186 -18.46154259 350.01107734 -18.45364285 329.43326569 C-18.45319709 328.26962119 -18.45319709 328.26962119 -18.45274232 327.08246873 C-18.45029335 320.78259963 -18.44768178 314.48273059 -18.44505819 308.18286156 C-18.4349539 283.6044664 -18.44331436 259.02613954 -18.46655273 234.44775391 C-18.49261566 206.83723601 -18.505476 179.22675924 -18.49836498 151.61622858 C-18.49764891 148.67319394 -18.49697453 145.73015929 -18.49632454 142.78712463 C-18.49615473 142.0624681 -18.49598492 141.33781156 -18.49580997 140.59119573 C-18.4935056 129.6454526 -18.50149043 118.69974763 -18.51461601 107.75401306 C-18.52951291 95.30889885 -18.53001439 82.86389106 -18.5125451 70.41877687 C-18.50400729 64.06656527 -18.5019534 57.71452472 -18.51719666 51.36232185 C-18.53097067 45.55056083 -18.5263747 39.73911857 -18.50695742 33.92737633 C-18.50317468 31.82182315 -18.50618427 29.71624487 -18.51656907 27.6107139 C-18.52966125 24.75372251 -18.51822486 21.89784399 -18.50057125 19.04090118 C-18.51504702 17.80806419 -18.51504702 17.80806419 -18.52981523 16.5503214 C-18.45817907 10.92328297 -17.24237193 7.62901034 -14 3 C-9.59006988 -0.10699622 -5.26204088 -0.9452768 0 0 Z " fill="#FFFFFF" transform="translate(1178,2538)"/>
<path d="M0 0 C2.9375 1 2.9375 1 5 2 C5 2.66 5 3.32 5 4 C5.66 4 6.32 4 7 4 C9.45467958 9.04874599 10.37533894 12.70708244 10.37854004 18.41575623 C10.38307017 19.12915336 10.3876003 19.8425505 10.3922677 20.57756573 C10.40382772 22.95090726 10.39427066 25.32367815 10.38476562 27.69702148 C10.38887399 29.40606549 10.39433644 31.11510669 10.40104675 32.82414246 C10.41275322 36.49798942 10.41526248 40.17168623 10.41069031 43.84554863 C10.4038609 49.66843649 10.41978536 55.49112832 10.43908691 61.3139801 C10.47691783 73.68847617 10.48972281 86.06295501 10.5 98.4375 C10.5110916 111.76820973 10.52665202 125.09882842 10.57071257 138.42947632 C10.58894838 144.20301933 10.59300401 149.97633689 10.58577728 155.74990165 C10.58424158 159.36387335 10.59512649 162.97773516 10.60915565 166.59167671 C10.61311557 168.25072944 10.61210768 169.90980383 10.60538292 171.56884766 C10.55266268 185.67437009 12.31050056 199.01063294 16.6875 212.5 C16.94096191 213.28697266 17.19442383 214.07394531 17.45556641 214.88476562 C21.66345129 227.43521771 27.68442012 238.6760665 36 249 C36.78375 249.99 37.5675 250.98 38.375 252 C49.62450087 264.85657242 66.26627524 273.35543314 83 276 C83.73992188 276.12890625 84.47984375 276.2578125 85.2421875 276.390625 C107.16605325 279.53442462 132.74270778 276.06192853 151 263 C171.83791356 247.14893755 184.4683492 225.67402844 190.4296875 200.19140625 C191 198 191 198 191.9453125 195.875 C193.54784167 191.5066242 194.22236043 187.01542378 195 182.4375 C195.17442627 181.4168042 195.34885254 180.3961084 195.52856445 179.34448242 C199.58967864 154.85438804 200.13428181 130.25029117 200.13809967 105.47488785 C200.14068277 101.48099619 200.15226105 97.48723516 200.16766357 93.49337769 C200.17023643 92.81288333 200.17280928 92.13238898 200.1754601 91.43127358 C200.18072296 90.04310727 200.18600843 88.65494104 200.19131613 87.26677489 C200.2261938 78.00384156 200.25295756 68.74103241 200.25048828 59.47802734 C200.24889899 53.17626174 200.26492174 46.87480975 200.30119491 40.57314479 C200.31958875 37.25422731 200.32629477 33.93594877 200.31671906 30.61697769 C200.30712899 26.93181962 200.32821198 23.24802314 200.35644531 19.56298828 C200.34624863 18.47519073 200.33605194 17.38739319 200.32554626 16.26663208 C200.43883247 8.03452888 200.43883247 8.03452888 203.42694092 4.36325073 C207.58782218 0.54164952 210.15905394 -0.47879738 215.97265625 -0.31640625 C219.38229184 0.21573341 221.42510651 1.78439398 224 4 C227.22336833 8.44602529 228.12396823 12.28771464 228.12863445 17.70215225 C228.1318589 18.64918306 228.13508335 19.59621386 228.1384055 20.57194257 C228.1360826 22.12795056 228.1360826 22.12795056 228.13371277 23.71539307 C228.13597833 24.81980893 228.13824388 25.92422479 228.14057809 27.0621078 C228.14692632 30.77611625 228.14608819 34.49008828 228.14526367 38.20410156 C228.14825467 40.86162961 228.15162862 43.51915477 228.15544128 46.17668152 C228.16375002 52.65456582 228.16649624 59.13244101 228.16705366 65.61033019 C228.16752879 70.876663 228.16958339 76.14299279 228.17275429 81.40932465 C228.18156208 96.34163847 228.18617356 111.27394511 228.18542381 126.20626155 C228.18538386 127.01137395 228.1853439 127.81648635 228.18530273 128.64599609 C228.18526185 129.45209221 228.18522097 130.25818832 228.18517885 131.08871159 C228.18477252 144.14868187 228.19433847 157.2086233 228.2084411 170.26858523 C228.22280861 183.67973973 228.22971105 197.09088015 228.22884732 210.50204253 C228.22851545 218.03081591 228.23125842 225.55955906 228.24202538 233.0883255 C228.25113538 239.49958215 228.25330158 245.91079487 228.24651595 252.32205519 C228.24325304 255.59188977 228.2442747 258.86162268 228.2518692 262.13145256 C228.25957702 265.67993452 228.25495207 269.22819523 228.24723816 272.77667236 C228.25238172 273.80508814 228.25752529 274.83350392 228.26282471 275.89308381 C228.1978654 289.41750816 228.1978654 289.41750816 223.5 294.9375 C218.89587615 298.73590217 214.80146599 298.50328175 209 298 C204.69947859 296.26149134 202.89586748 294.18991001 201 290 C200.52233252 286.19558213 200.51120372 282.40501756 200.48828125 278.57421875 C200.47033005 277.47149124 200.45237885 276.36876373 200.43388367 275.23262024 C200.37978996 271.71761881 200.3458871 268.20275313 200.3125 264.6875 C200.2793262 262.30141341 200.24483648 259.91534473 200.20898438 257.52929688 C200.12406393 251.68631964 200.05570992 245.84332481 200 240 C199.59619614 240.68081635 199.19239227 241.36163269 198.77635193 242.06307983 C198.24228226 242.95927032 197.70821259 243.85546082 197.15795898 244.77880859 C196.36662819 246.10940811 196.36662819 246.10940811 195.55931091 247.46688843 C182.53598538 268.62337258 162.35311556 288.06060976 139.00634766 297.20605469 C137.66750777 297.73585601 136.33859541 298.29145536 135.02099609 298.87207031 C117.13211844 306.63718734 97.06487234 304.55636787 78 304 C78 303.34 78 302.68 78 302 C77.38616455 301.96334229 76.7723291 301.92668457 76.13989258 301.88891602 C69.90534171 301.40750419 64.51778098 300.16540023 58.6875 297.9375 C57.86427246 297.62586914 57.04104492 297.31423828 56.19287109 296.99316406 C43.40172925 291.97458216 33.09338089 284.16747599 23 275 C22.175 274.25878906 21.35 273.51757812 20.5 272.75390625 C14.2890005 266.8771793 9.62430032 260.14741308 5 253 C4.5992627 252.40646729 4.19852539 251.81293457 3.78564453 251.20141602 C0.21717561 245.77278776 -2.23295127 240.08798826 -4.625 234.0625 C-5.0065625 233.12470703 -5.388125 232.18691406 -5.78125 231.22070312 C-14.28201059 210.13002298 -17.31329669 189.693637 -17.2746582 167.08496094 C-17.27901943 165.36644777 -17.2842072 163.64793654 -17.29014587 161.9294281 C-17.30338046 157.32071948 -17.30413327 152.71209359 -17.30158257 148.10336971 C-17.30050443 144.24326661 -17.30541644 140.3831797 -17.310188 136.52308011 C-17.3212244 127.42341447 -17.32175069 118.32379016 -17.31567383 109.22412109 C-17.30960777 99.84608105 -17.32202485 90.46819003 -17.3432439 81.09017539 C-17.36084447 73.01337854 -17.3668646 64.93662925 -17.36360615 56.85981393 C-17.36179426 52.04594361 -17.36442233 47.2321802 -17.37832069 42.41832733 C-17.39087295 37.90374001 -17.3889798 33.38938717 -17.37590981 28.87480354 C-17.37354063 27.21917962 -17.37629091 25.56353929 -17.38453293 23.90793419 C-17.39497119 21.6485341 -17.38692469 19.38992566 -17.3742218 17.1305542 C-17.37438954 15.8667329 -17.37455729 14.60291161 -17.37473011 13.30079269 C-16.82113249 8.42445388 -15.074984 5.94388839 -11.4375 2.75 C-7.39577157 -0.15175374 -4.99687 -0.25407814 0 0 Z " fill="#FFFFFF" transform="translate(2735,2787)"/>
<path d="M0 0 C3.9355187 2.04063932 6.85573899 4.11112674 9 8 C9.43700675 11.21071571 9.37848037 14.39823545 9.34057617 17.63378906 C9.34123329 19.09770081 9.34123329 19.09770081 9.34190369 20.59118652 C9.33981408 23.81620302 9.31647451 27.04069934 9.29296875 30.265625 C9.28737342 32.50192989 9.28310302 34.73823846 9.28010559 36.97454834 C9.26865194 42.86008865 9.23918005 48.74540682 9.20599365 54.63085938 C9.17530413 60.63668818 9.16160263 66.64255288 9.14648438 72.6484375 C9.11431104 84.43238926 9.06310821 96.21617616 9 108 C9.82383682 107.99333817 10.64767365 107.98667633 11.49647522 107.97981262 C19.27911736 107.9195782 27.06164567 107.87396316 34.84446049 107.84456348 C38.84522041 107.82894044 42.84578692 107.80776412 46.84643555 107.77368164 C50.71086452 107.74096752 54.57510802 107.72312173 58.43966484 107.71536827 C59.91039383 107.7098463 61.38111323 107.6990633 62.85176277 107.68280983 C64.9197049 107.66087431 66.98689098 107.65803964 69.05493164 107.65942383 C70.81698692 107.64943108 70.81698692 107.64943108 72.61463928 107.63923645 C78.06923831 108.22050996 81.90807009 110.00100029 85.9375 113.6875 C88.46546024 117.74755736 88.8536251 120.35145459 88 125 C86.42299677 129.17905855 84.86067171 131.70772617 81 134 C77.56961706 135.14346098 74.9436825 135.120116 71.32543945 135.11352539 C70.652005 135.11367142 69.97857056 135.11381744 69.284729 135.1139679 C67.06088021 135.11327175 64.83711539 135.10549332 62.61328125 135.09765625 C61.07057236 135.09579101 59.52786289 135.09436761 57.9851532 135.09336853 C53.92616132 135.08955169 49.86720527 135.07972851 45.80822754 135.06866455 C41.66577641 135.05843252 37.5233195 135.05386707 33.38085938 135.04882812 C25.25388982 135.03810551 17.12694937 135.02103907 9 135 C9.00113916 135.55671739 9.00227832 136.11343478 9.003452 136.68702239 C9.07056431 169.67160054 9.12204858 202.6561616 9.15319599 235.64079271 C9.15694818 239.59996544 9.16083114 243.55913803 9.16479492 247.51831055 C9.16558185 248.30652129 9.16636878 249.09473204 9.16717956 249.90682796 C9.18023884 262.67486138 9.20389555 275.44285433 9.23145839 288.21086373 C9.25949808 301.30885908 9.27617321 314.40683323 9.28226548 327.50485736 C9.28638491 335.58915944 9.29940282 343.67334717 9.3237494 351.75761405 C9.34145944 357.95325807 9.34336925 364.14881464 9.33932304 370.34448051 C9.34015037 372.88861547 9.34614413 375.43275464 9.35761642 377.97686386 C9.37248576 381.44349247 9.36897357 384.90962705 9.36076355 388.37626648 C9.36950207 389.38891262 9.3782406 390.40155877 9.38724393 391.44489115 C9.34525176 397.97992864 8.35104953 401.36397477 3.9375 406.3125 C-0.35288656 408.77719015 -4.16386502 408.64534915 -9 408 C-12.43353812 406.68502795 -13.60029256 405.60855642 -15.60635853 402.55431175 C-17.50743379 397.70585233 -17.40544202 393.41859246 -17.36076355 388.25601196 C-17.36332682 387.17282759 -17.3658901 386.08964322 -17.36853105 384.97363508 C-17.37347279 381.34376289 -17.35696903 377.71430654 -17.34057617 374.08447266 C-17.33972999 371.4826356 -17.34020487 368.88079782 -17.34190369 366.27896118 C-17.34347537 360.677229 -17.33407722 355.0756018 -17.31719017 349.47389603 C-17.29279041 341.37482632 -17.28499391 333.27580728 -17.2812262 325.17670481 C-17.27466324 312.03590596 -17.25470632 298.89516303 -17.22631836 285.75439453 C-17.19877375 272.9907255 -17.17754214 260.22707167 -17.16479492 247.46337891 C-17.16400675 246.67638841 -17.16321858 245.88939792 -17.16240653 245.07855923 C-17.15849136 241.13038833 -17.15470025 237.18221731 -17.15097082 233.23404622 C-17.11987976 200.48932344 -17.06704822 167.74466921 -17 135 C-17.82383682 135.00888245 -18.64767365 135.01776489 -19.49647522 135.0269165 C-27.27910209 135.1072289 -35.06152663 135.16804852 -42.84446049 135.20724869 C-46.8452994 135.22807983 -50.84579448 135.25631459 -54.84643555 135.30175781 C-58.71087945 135.3453768 -62.57499366 135.36917073 -66.43966484 135.37950897 C-67.91041691 135.38687172 -69.38115193 135.4012495 -70.85176277 135.42292023 C-85.2964103 135.62721406 -85.2964103 135.62721406 -91 131 C-93.4076329 127.38855065 -94.03142735 124.26626316 -94 120 C-92.59866028 114.48806376 -90.38006405 111.84517679 -85.64794922 109.02993774 C-79.98226639 106.82623212 -73.77131292 107.39924645 -67.78125 107.51171875 C-66.31295991 107.5210591 -64.8446541 107.52816943 -63.37634277 107.53315735 C-59.5356446 107.55213169 -55.69591116 107.60114659 -51.85559082 107.65667725 C-47.92729742 107.70807871 -43.99884618 107.73071566 -40.0703125 107.75585938 C-32.37977135 107.8092775 -24.6900215 107.89447039 -17 108 C-17.00888245 106.77304413 -17.01776489 105.54608826 -17.0269165 104.2819519 C-17.10801618 92.71698253 -17.16797221 81.15207089 -17.20724869 69.58688164 C-17.22811999 63.64113383 -17.25642988 57.69561565 -17.30175781 51.75 C-17.34523097 46.01173776 -17.36914054 40.27369635 -17.37950897 34.53528214 C-17.38689763 32.34641163 -17.40132592 30.15755316 -17.42292023 27.9687767 C-17.4519731 24.90193346 -17.45595512 21.83600177 -17.45410156 18.76904297 C-17.46848267 17.86489151 -17.48286377 16.96074005 -17.49768066 16.02919006 C-17.45506414 9.50921357 -15.72233019 6.02481132 -11.3125 1.125 C-7.5965259 -0.68277118 -4.04437154 -0.63895453 0 0 Z " fill="#FFFFFF" transform="translate(924,2677)"/>
<path d="M0 0 C2.71776216 2.37804189 4.3618765 3.97289872 4.7784729 7.63627625 C4.79179657 8.6066835 4.80512024 9.57709076 4.81884766 10.5769043 C4.83871735 11.67781906 4.85858704 12.77873383 4.87905884 13.91300964 C4.89061005 15.10058365 4.90216125 16.28815765 4.9140625 17.51171875 C4.93342865 18.72825638 4.9527948 19.94479401 4.9727478 21.19819641 C5.03261021 25.09039257 5.07895618 28.98261819 5.125 32.875 C5.16317359 35.51108073 5.20222495 38.14714891 5.2421875 40.78320312 C5.3383173 47.25119078 5.42334539 53.71925382 5.5 60.1875 C6.12648438 59.32125 6.75296875 58.455 7.3984375 57.5625 C8.22361968 56.43725157 9.04915902 55.31226501 9.875 54.1875 C10.2875 53.61515625 10.7 53.0428125 11.125 52.453125 C12.20171719 50.99434688 13.34666578 49.58649024 14.5 48.1875 C15.16 48.1875 15.82 48.1875 16.5 48.1875 C16.71140625 47.66027344 16.9228125 47.13304688 17.140625 46.58984375 C19.05582818 43.20521745 21.60018025 40.57755156 24.25 37.75 C24.76304687 37.18990234 25.27609375 36.62980469 25.8046875 36.05273438 C29.15394568 32.44681193 32.58610699 29.17883252 36.5 26.1875 C37.16 26.1875 37.82 26.1875 38.5 26.1875 C38.5 25.5275 38.5 24.8675 38.5 24.1875 C56.74439397 8.18173758 81.10483905 -1.95123569 105.375 -2.4375 C106.45285767 -2.47230469 106.45285767 -2.47230469 107.55249023 -2.5078125 C113.08274281 -2.42410997 116.58792617 -0.51776817 120.5 3.1875 C122.97281478 6.89672216 123.04814927 9.88663651 122.5 14.1875 C120.81597733 17.89234986 118.58461902 20.55107349 115.5 23.1875 C112.57421875 24.09375 112.57421875 24.09375 109.1875 24.6875 C82.96758667 29.76319751 53.68026334 39.94409728 37.76953125 63.046875 C37.02058594 64.08328125 36.27164063 65.1196875 35.5 66.1875 C34.84 66.1875 34.18 66.1875 33.5 66.1875 C33.25636719 66.69539063 33.01273438 67.20328125 32.76171875 67.7265625 C31.40796506 70.36701087 29.95106082 72.94003363 28.47924805 75.51611328 C21.34125975 88.0355981 14.85788775 100.04366976 11.5 114.1875 C11.32871582 114.88439941 11.15743164 115.58129883 10.98095703 116.29931641 C5.57124127 138.5599296 5.20460354 160.89542919 5.19407773 183.70621991 C5.18952387 187.30328379 5.1714819 190.90027731 5.15428162 194.49729919 C5.10567268 205.13145726 5.07410713 215.76565473 5.05297852 226.39990234 C5.03644029 234.72284078 5.0136829 243.04564167 4.96995777 251.36848778 C4.9482571 255.63225426 4.94011561 259.89575863 4.94235051 264.15957654 C4.94029265 267.42097621 4.9189446 270.68226073 4.90063477 273.94360352 C4.90750053 275.70221458 4.90750053 275.70221458 4.914505 277.49635315 C4.90003326 279.11235413 4.90003326 279.11235413 4.88526917 280.76100159 C4.88325784 281.69385766 4.88124651 282.62671373 4.87917423 283.58783817 C4.22646205 288.06290738 2.18301956 290.59978549 -1.1875 293.5 C-5.20602909 295.54717519 -8.08129947 296.06065639 -12.5 295.1875 C-16.97019214 292.91023231 -19.47084902 290.75803402 -21.5 286.1875 C-21.94736532 282.45834177 -21.90873914 278.74881307 -21.88768005 274.99671936 C-21.89306559 273.85328597 -21.89845113 272.70985258 -21.90399987 271.53176969 C-21.91833295 267.69172533 -21.91116231 263.85202308 -21.90405273 260.01196289 C-21.90810922 257.26236575 -21.91661571 254.51278622 -21.92485046 251.76319885 C-21.94205098 245.06484816 -21.9428759 238.36659121 -21.93763756 231.66822416 C-21.93359698 226.22406743 -21.93503808 220.77993841 -21.94038582 215.335783 C-21.94113424 214.56109164 -21.94188266 213.78640028 -21.94265376 212.98823343 C-21.94418523 211.41447548 -21.94572358 209.84071754 -21.94726873 208.2669596 C-21.96099828 193.50689916 -21.95555288 178.74689172 -21.94408352 163.98683249 C-21.93415047 150.48257728 -21.94709221 136.97845907 -21.97101771 123.47422499 C-21.99539816 109.6087713 -22.0050192 95.74338144 -21.99836498 81.87790674 C-21.99487043 74.09320144 -21.99712034 66.30860153 -22.01461601 58.52391243 C-22.02932483 51.89701415 -22.02999084 45.27029545 -22.0125451 38.64340074 C-22.00402153 35.26226632 -22.00407843 31.88171691 -22.01719666 28.50055695 C-22.03033381 24.83515416 -22.01892221 21.17062882 -22.00120544 17.50526428 C-22.01081045 16.43668641 -22.02041546 15.36810853 -22.03031152 14.26714951 C-21.97045658 8.26467306 -21.51630172 4.75497758 -17.5 0.1875 C-12.26979766 -3.44633536 -5.40543375 -2.79924248 0 0 Z " fill="#FFFFFF" transform="translate(2032.5,2787.8125)"/>
</svg>
